<?xml version="1.0" encoding="UTF-8"?><svg id="Layer_2" xmlns="http://www.w3.org/2000/svg" viewBox="0 0 1529.27 384.68"><defs><style>.cls-1{fill:#fff;}.cls-2{fill:#51b848;fill-rule:evenodd;}.cls-3{fill:#009cd7;}</style></defs><g id="Layer_1-2"><path class="cls-3" d="m282.19,243.58c0,55.93-32.56,104.27-79.75,127.09,18.52-52.45,10.08-97.62-27.69-142.29-33.89-40.07-80.22-81.75-100.81-130.39l-2.73-6.46-1.21-.31C95.83,56.91,123.14,25.35,141.1,0c43.3,61.16,141.09,158.35,141.09,243.58Z"/><path class="cls-2" d="m184.45,377.88h-.02c-57.25-32.98-98.45-83.54-116.21-159.77,1.93,70.32,41.31,121.9,99.65,164.02-8.67,1.67-17.62,2.55-26.78,2.55C63.18,384.68,0,321.5,0,243.58c0-45.72,28.14-94.88,60.91-140.07,21.27,50.27,66.16,90.42,103.03,134.01,37.17,43.96,43.18,87.06,20.51,140.36Z"/><path class="cls-1" d="m466.93,95.43v73.61c0,38-23.31,57.46-55.62,57.46s-57.09-18.72-57.09-57.46v-73.61h24.05v73.61c0,23.13,13.22,35.43,33.22,35.43s31.39-13.4,31.39-35.43v-73.61h24.05Z"/><path class="cls-1" d="m505.85,133.25l1.65,10.46c6.98-11.2,16.34-12.85,25.52-12.85s18.36,3.67,23.31,8.63l-10.1,19.46c-4.59-3.85-8.81-5.87-16.15-5.87-11.75,0-22.58,6.24-22.58,22.95v47.73h-22.4v-90.5h20.74Z"/><path class="cls-1" d="m587.17,95.43v50.11c5.32-9.36,20.19-14.5,29.74-14.5,26.43,0,46.07,16.15,46.07,47.36s-20.01,47.36-46.62,47.36c-11.01,0-22.21-3.67-29.19-14.5l-1.47,12.48h-20.93V95.43h22.39Zm1.47,82.97c0,16.34,12.12,26.62,26.25,26.62s25.7-10.83,25.7-26.62-11.38-26.43-25.7-26.43-26.25,10.65-26.25,26.43Z"/><path class="cls-1" d="m751.28,133.25h21.48v90.5h-21.11l-1.1-13.22c-5.14,10.65-19.27,15.79-29.37,15.97-26.8.18-46.62-16.34-46.62-48.09s20.74-47.54,47.18-47.36c12.12,0,23.68,5.69,28.82,14.68l.73-12.48Zm-54.33,45.16c0,17.25,11.93,27.53,26.8,27.53,35.24,0,35.24-54.89,0-54.89-14.87,0-26.8,10.1-26.8,27.35Z"/><path class="cls-1" d="m858.29,223.75v-47.36c0-13.77-7.53-24.23-21.84-24.23s-23.13,11.56-23.13,25.33v46.26h-22.21v-90.68h20.01l1.47,12.3c9.18-8.99,18.36-13.58,29.74-13.58,21.29,0,38.36,15.97,38.36,44.42v47.54h-22.39Z"/><path class="cls-1" d="m1023.14,95.07h24.23v128.68h-15.05v.18l-67.55-86.83v86.64h-24.23V95.25h19.64l62.96,79.67v-79.85Z"/><path class="cls-1" d="m1139.7,133.25h21.48v90.5h-21.11l-1.1-13.22c-5.14,10.65-19.27,15.79-29.37,15.97-26.8.18-46.62-16.34-46.62-48.09s20.74-47.54,47.18-47.36c12.12,0,23.68,5.69,28.82,14.68l.73-12.48Zm-54.33,45.16c0,17.25,11.93,27.53,26.8,27.53,35.24,0,35.24-54.89,0-54.89-14.87,0-26.8,10.1-26.8,27.35Z"/><path class="cls-1" d="m1207.81,107.73v25.7h24.96v19.27h-25.15v39.1c0,8.63,4.77,12.85,11.75,12.85,3.49,0,7.53-1.1,10.83-2.75l6.24,19.09c-6.42,2.57-11.75,3.67-18.54,3.86-19.64.73-32.49-10.46-32.49-33.04v-39.1h-16.89v-19.27h16.89v-23.31l22.4-2.39Z"/><path class="cls-1" d="m1272.42,133.25v47.36c0,13.77,7.53,24.23,21.84,24.23s23.13-11.56,23.13-25.33v-46.26h22.21v90.68h-20.01l-1.47-12.3c-9.36,9.18-17.99,13.58-30.65,13.58-21.66,0-37.45-16.34-37.45-44.42v-47.54h22.4Z"/><path class="cls-1" d="m1380.17,133.25l1.65,10.46c6.98-11.2,16.34-12.85,25.52-12.85s18.36,3.67,23.31,8.63l-10.1,19.46c-4.59-3.85-8.81-5.87-16.15-5.87-11.75,0-22.58,6.24-22.58,22.95v47.73h-22.39v-90.5h20.74Z"/><path class="cls-1" d="m1458.19,186.48c1.47,11.2,11.2,19.27,26.98,19.27,8.26,0,19.09-3.12,24.23-8.44l14.32,14.13c-9.55,9.91-25.15,14.69-38.92,14.69-31.21,0-49.75-19.27-49.75-48.28s18.72-47.36,48.09-47.36,49.2,18.72,45.71,55.99h-70.67Zm49.19-18.54c-1.47-11.75-10.65-17.62-23.5-17.62-12.12,0-22.03,5.88-25.33,17.62h48.83Z"/><path class="cls-1" d="m360.49,318.03h26.04v5.53h-31.98v-47.83h5.95v42.3Z"/><path class="cls-1" d="m429.11,275.73l21.46,47.83h-6.42l-4.72-10.52h-27.33l-4.65,10.52h-6.49l21.46-47.83h6.7Zm-3.35,6.01l-11.34,25.83h22.69l-11.34-25.83Z"/><path class="cls-1" d="m474.28,275.73l29.32,36.63v-36.63h5.88v47.83h-4.1l-29.38-36.49v36.49h-5.88v-47.83h4.17Z"/><path class="cls-1" d="m534.22,275.66h17.43c16.26,0,24.05,11.62,24.05,23.44s-7.31,24.46-24.05,24.46h-17.43v-47.9Zm35.53,23.37c0-8.88-5.88-17.63-18.11-17.63h-11.48v36.22h11.48c12.71,0,18.11-9.43,18.11-18.59Z"/><path class="cls-1" d="m614.04,280.04c-6.08,0-12.57,2.39-12.57,8.2,0,5.19,5.95,6.7,12.98,7.86,9.57,1.5,19,3.42,19,14.21-.07,10.73-10.32,14.21-19.48,14.21-8.47,0-16.54-3.07-20.23-11.07l4.92-2.87c3.08,5.67,9.5,8.41,15.38,8.41s13.53-1.85,13.53-8.88c.07-5.95-6.63-7.65-13.8-8.75-9.23-1.44-18.18-3.55-18.18-13.26-.14-9.98,10.05-13.39,18.31-13.39,7.11,0,13.87,1.44,18.11,8.68l-4.51,2.8c-2.6-4.17-8.13-6.08-13.46-6.15Z"/><path class="cls-1" d="m676.91,324.32c-16.88,0-24.87-11.69-24.94-24.4-.14-12.64,8.13-24.94,24.94-24.94,6.36,0,12.64,2.39,17.49,7.18l-4.1,3.83c-3.69-3.62-8.54-5.33-13.39-5.33-12.85,0-19.07,9.29-19,19.2.14,9.7,6.08,18.79,19,18.79,4.85,0,9.98-1.91,13.6-5.53l4.17,4.1c-4.85,4.78-11.21,7.11-17.77,7.11Z"/><path class="cls-1" d="m738.08,275.73l21.46,47.83h-6.42l-4.72-10.52h-27.33l-4.65,10.52h-6.49l21.46-47.83h6.7Zm-3.35,6.01l-11.34,25.83h22.69l-11.34-25.83Z"/><path class="cls-1" d="m784.96,323.56h-5.88v-47.83h21.73c22,0,22,32.32,0,32.39h-15.85v15.44Zm15.85-42.3h-15.85v21.32h15.85c14.08,0,14.08-21.32,0-21.32Z"/><path class="cls-1" d="m837.86,275.73h5.95v47.83h-5.95v-47.83Z"/><path class="cls-1" d="m872.72,275.73l29.32,36.63v-36.63h5.88v47.83h-4.1l-29.38-36.49v36.49h-5.88v-47.83h4.17Z"/><path class="cls-1" d="m968.8,285.91c-3.76-3.62-9.29-5.6-14.15-5.6-12.3,0-19,9.22-19,19.75,0,9.7,6.15,18.79,19.13,18.79,4.51,0,9.09-1.44,13.05-4.85v-11.34h-14.9v-5.26h20.3v18.93c-4.85,5.19-10.8,8.13-18.52,8.13-17.02,0-24.94-11.55-24.94-24.4-.07-14.28,9.29-25.28,24.87-25.28,6.36,0,12.71,2.39,17.56,7.18l-3.42,3.96Z"/><path class="cls-1" d="m1051.84,287.69c0-6.08-5.19-7.45-10.86-7.45-8.2,0-11.62,4.1-11.55,8.34.07,6.22,7.04,8.06,11.69,8.06h21.25v4.85h-4.24v8.88c0,4.1,1.16,7.93,5.19,7.86v5.4c-3.76.27-7.24-1.3-8.47-5.95-3.35,5.4-8.82,6.49-13.87,6.49-11.07,0-18.25-4.3-18.25-14.15,0-5.06,3.96-9.36,8.61-10.93-4.65-1.44-7.72-5.81-7.72-10.39,0-8.68,7.65-13.46,17.49-13.46,8,0,16.33,2.53,16.33,12.57h-5.6v-.14Zm-11.14,13.74c-8.13,0-12.1,4.51-12.1,8.47,0,5.67,4.72,8.95,12.23,8.95,4.44,0,11.89-2.05,11.89-8.61v-8.82h-12.03Z"/><path class="cls-1" d="m1130.98,280.04c-6.08,0-12.57,2.39-12.57,8.2,0,5.19,5.95,6.7,12.98,7.86,9.57,1.5,19,3.42,19,14.21-.07,10.73-10.32,14.21-19.48,14.21-8.47,0-16.54-3.07-20.23-11.07l4.92-2.87c3.08,5.67,9.5,8.41,15.38,8.41s13.53-1.85,13.53-8.88c.07-5.95-6.63-7.65-13.8-8.75-9.23-1.44-18.18-3.55-18.18-13.26-.14-9.98,10.05-13.39,18.31-13.39,7.11,0,13.87,1.44,18.11,8.68l-4.51,2.8c-2.6-4.17-8.13-6.08-13.46-6.15Z"/><path class="cls-1" d="m1166.65,281.06v-5.33h38.54v5.33h-16.33v42.5h-5.88v-42.5h-16.33Z"/><path class="cls-1" d="m1243.26,275.73l21.46,47.83h-6.42l-4.72-10.52h-27.33l-4.65,10.52h-6.49l21.46-47.83h6.7Zm-3.35,6.01l-11.34,25.83h22.69l-11.34-25.83Z"/><path class="cls-1" d="m1317.48,275.73v5.67h-27.27v16.67h26.1v5.53h-26.1v20.02h-5.95v-47.9h33.21Z"/><path class="cls-1" d="m1372.29,275.73v5.67h-27.27v16.67h26.1v5.53h-26.1v20.02h-5.95v-47.9h33.21Z"/><path class="cls-1" d="m1393.89,275.73h5.95v47.83h-5.95v-47.83Z"/><path class="cls-1" d="m1428.74,275.73l29.32,36.63v-36.63h5.88v47.83h-4.1l-29.38-36.49v36.49h-5.88v-47.83h4.17Z"/><path class="cls-1" d="m1524.83,285.91c-3.76-3.62-9.29-5.6-14.15-5.6-12.3,0-19,9.22-19,19.75,0,9.7,6.15,18.79,19.13,18.79,4.51,0,9.09-1.44,13.05-4.85v-11.34h-14.9v-5.26h20.3v18.93c-4.85,5.19-10.8,8.13-18.52,8.13-17.02,0-24.94-11.55-24.94-24.4-.07-14.28,9.29-25.28,24.87-25.28,6.36,0,12.71,2.39,17.56,7.18l-3.42,3.96Z"/></g></svg>